<?xml version="1.0" encoding="utf-8"?>
<svg version="1.1" id="Layer_1" xmlns="http://www.w3.org/2000/svg" xmlns:xlink="http://www.w3.org/1999/xlink" x="0px" y="0px"
	 viewBox="0 0 948 495" style="enable-background:new 0 0 948 495;" xml:space="preserve">
<g>
	<path d="M702.3,393.1c-114.4,0-228.5,0-342.9,0c-0.7,3-1.3,5.8-2.1,8.7c-8.1,29.2-34.5,48.3-65.2,47.2c-28.9-1-54.1-22.5-59.8-51.4
		c-0.8-3.8-2-4.8-5.7-4.8c-18.5,0.2-37,0.1-55.5,0.1c-11.7,0-17.2-7.3-13.8-18.3c8.2-26.6,16.4-53.1,24.6-79.7c2-6.4,7.1-10,13-9.6
		c6.1,0.5,11.1,5,11.6,11.1c0.2,2.4-0.4,5-1.1,7.3c-5.9,19.4-11.9,38.8-17.9,58.2c-0.5,1.7-1,3.5-1.6,5.8c12.1,0,23.7-0.5,35.3,0.2
		c8.1,0.4,12.5-1.2,16-9.8c9.6-23.8,34.4-38.7,59.6-37.8c27.1,1,50.2,17.4,59.1,42.6c1.3,3.8,2.9,5,6.9,5
		c70.2-0.1,140.3-0.1,210.5,0c4.4,0,5.9-1.5,7-5.4c23.5-77.9,48.2-155.5,68.1-234.4c0.3-1.1,0.5-2.2,0.9-4c-2.1,0-3.9,0-5.6,0
		c-129.5,0-259,0-388.5-0.1c-4.1,0-6.1,1.2-6.9,5.1c-0.6,2.7-1.6,5.4-2.7,8c-2.7,6.6-9.5,9.7-16,7.3c-6.3-2.3-9.7-8.7-7.7-15.3
		c2.2-7.3,4.7-14.6,7.3-21.8c1.9-5.2,5.9-7.9,11.4-8.2c1.2-0.1,2.3,0,3.5,0c139.5,0,279,0,418.5,0c0.8,0,1.7,0,2.5,0
		c9.5,0.2,15,7.2,12.7,16.5c-1.7,7.3-3.7,14.5-5.6,21.7c0,0.1,0.1,0.3,0.2,1c1.8,0,3.8,0,5.7,0c31.7,0,63.3,0.1,95-0.1
		c7.7-0.1,12.7,2.7,16.6,9.4c19.3,33.9,38.8,67.5,58.5,101.2c1.5,2.6,3.9,5,6.5,6.5c17.5,10.3,35.2,20.4,52.7,30.6
		c7.7,4.4,9.5,9.1,7.1,17.5c-7.6,26.1-15.1,52.1-22.7,78.1c-2.5,8.5-6.3,11.3-15.2,11.3c-13.5,0-27,0-40.5,0c-1.8,0-3.6,0-5.6,0
		c-3,18.1-11.2,32.7-25.7,43.4c-11.9,8.8-25.4,13-40.2,12.7C733.8,448.4,710.6,427.8,702.3,393.1z M610.2,367.3
		c0.9,0.3,1.3,0.5,1.8,0.5c29.8,0,59.6,0.1,89.5-0.1c1.3,0,3.3-1.9,3.8-3.3c10.3-27.2,33.5-44,61.2-44c27.7,0,51,16.8,61,44.1
		c1,2.7,2.3,3.5,5,3.5c11-0.1,22-0.2,33,0c3.4,0.1,4.6-1.3,5.4-4.2c5.3-18.7,10.7-37.4,16.3-56.1c0.9-3.1,0.2-4.3-2.4-5.8
		c-15.8-8.9-31.6-17.9-47.1-27.3c-3.4-2-6.6-5.2-8.6-8.6c-18.9-32.3-37.6-64.7-56.2-97.3c-2.1-3.8-4.4-5.4-8.9-5.3
		c-30.3,0.2-60.6,0.2-91,0c-4.7,0-6.7,1.3-7.9,5.8c-14.6,52.7-29.4,105.4-44.1,158.1C617.3,340.6,613.8,353.9,610.2,367.3z
		 M766.6,345.6c-21.8-0.1-39.5,17.6-39.4,39.4c0.1,21.2,17.7,38.7,39,38.9c21.8,0.1,39.7-17.6,39.6-39.2
		C805.7,363.1,788.2,345.7,766.6,345.6z M295.4,345.6c-21.6-0.1-39.2,17.2-39.4,38.8c-0.2,21.5,17.3,39.3,38.8,39.5
		c21.8,0.2,39.7-17.4,39.6-39.1C334.5,363.1,317.1,345.7,295.4,345.6z"/>
	<path d="M183,181.5c-49.1,0-98.3,0-147.4,0c-10.6,0-16.4-4.4-16.5-12.4c-0.1-8.2,5.9-12.7,16.7-12.7c98.5,0,196.9,0,295.4,0
		c2.3,0,4.7,0,6.9,0.5c6,1.3,10.1,6.7,9.8,12.7c-0.3,5.9-4.6,10.7-10.5,11.6c-2.1,0.3-4.3,0.3-6.5,0.3
		C281.6,181.5,232.3,181.5,183,181.5z"/>
	<path d="M273,200.7c37,0,74,0,111,0c2.2,0,4.4,0,6.5,0.4c5.2,1.1,9.2,6.1,9.4,11.6c0.2,5.4-3.3,10.6-8.5,12.2
		c-2,0.6-4.3,0.8-6.4,0.8c-75,0-150,0-224.9,0c-10.7,0-17.2-7.7-14.2-16.5c1.9-5.5,6.1-8.5,12.7-8.5c15.2-0.1,30.3,0,45.5,0
		C227,200.7,250,200.7,273,200.7z"/>
	<path d="M192,248.9c32.8,0,65.6,0,98.5,0c8.2,0,13.5,4.8,13.8,12c0.2,6.8-4.5,12.3-11.2,13c-1.6,0.2-3.3,0.1-5,0.1
		c-64.3,0-128.6,0-192.9,0c-1.2,0-2.3,0-3.5,0c-7.4-0.3-12.7-5.7-12.6-12.8c0.1-6.8,5.3-12.1,12.6-12.2c11.5-0.2,23-0.1,34.5-0.1
		C148,248.9,170,248.9,192,248.9z"/>
</g>
</svg>
